<svg xmlns="http://www.w3.org/2000/svg" viewBox="0 0 158.74 143.98"><defs><style>.cls-1{fill:#babdc6;}</style></defs><title>asesoria</title><g id="Capa_2" data-name="Capa 2"><g id="Capa_1-2" data-name="Capa 1"><path class="cls-1" d="M131.45,65.72A65.73,65.73,0,1,0,8.9,98.74L.7,129.31l29.94-8A65.72,65.72,0,0,0,131.45,65.72ZM74.11,105H57.24V88.71H74.11ZM90.2,57.51q-2.13,3-8.21,7.78L78,68.4a12.15,12.15,0,0,0-4.33,5.92A25.17,25.17,0,0,0,72.93,81H57.64q.33-9.54,1.8-13.17T67,59.43l4.1-3.22a14.68,14.68,0,0,0,3.27-3.33,11.37,11.37,0,0,0,2.25-6.83,13.18,13.18,0,0,0-2.51-7.81q-2.5-3.52-9.15-3.53t-9.26,4.35a16.7,16.7,0,0,0-2.73,9H36.65Q37.33,32,47.88,25.29,54.53,21,64.24,21,77,21,85.43,27.09t8.43,18.06A20.43,20.43,0,0,1,90.2,57.51Z"/><path class="cls-1" d="M158.74,84.19a59.71,59.71,0,0,0-25.55-49,74,74,0,0,1-57.79,104,59.76,59.76,0,0,0,55.46-4.41L158.1,142l-7.45-27.82A59.58,59.58,0,0,0,158.74,84.19Z"/></g></g></svg>