<svg xmlns="http://www.w3.org/2000/svg" viewBox="0 0 141.99 142.36"><defs><style>.cls-1{fill:#fff;}</style></defs><g id="Capa_2" data-name="Capa 2"><g id="Copia_de_icono1_copia_Imagen" data-name="Copia de icono1 copia Imagen"><path class="cls-1" d="M71.11,142.36h-51c-12.63,0-20-7.23-20.09-20C0,103.25,0,84.09,0,64.94,0,50.62,0,36.29,0,22,.09,8.44,8.26.17,21.84.14c33-.07,66,.18,98.93-.14C131.62-.1,142.25,8.22,142,21.18c-.69,34.46-.23,68.95-.24,103.42,0,10.64-7.1,17.76-17.68,17.76ZM11.72,71.9c0,16.65,0,33.3,0,49.95,0,7.17,2.79,10.09,10,10.1q49.45.11,98.92,0c7.47,0,10.12-2.88,10.12-10.4q0-49.71,0-99.42c0-7.49-2.73-10.34-10.17-10.35q-49.21-.06-98.42,0c-7.73,0-10.39,2.77-10.4,10.65Q11.68,47.16,11.72,71.9Z"/><path class="cls-1" d="M76.62,77.35c0,8,0,15.26,0,22.56,0,3.76-1,6.79-5.41,6.76s-5.37-3.06-5.34-6.82c.06-7.3,0-14.59,0-22.5-7.66,0-14.93.17-22.19-.12a10.06,10.06,0,0,1-6.05-2.47c-1-.91-1.26-4-.47-5a8.58,8.58,0,0,1,5.56-3.23c7.45-.37,14.94-.15,23.15-.15,0-7.72-.25-15.15.16-22.54.12-2.24,1.56-5.32,3.35-6.35,3.67-2.12,7.11.87,7.19,5.85.11,7.46,0,14.93,0,23,7.65,0,14.92-.18,22.18.11a10.17,10.17,0,0,1,6,2.49c1,.91,1.25,3.94.47,5a8.68,8.68,0,0,1-5.56,3.24C92.3,77.57,84.82,77.35,76.62,77.35Z"/></g></g></svg>