<svg height="384pt" viewBox="0 0 384 384" width="384pt" xmlns="http://www.w3.org/2000/svg"><path d="m169.304688 73.414062-38.792969 34.472657-34.511719-34.511719-22.625 22.625 33.183594 33.183594-33.144532 29.457031 21.226563 23.945313 34.582031-30.738282 30.777344 30.777344 22.625-22.625-29.449219-29.449219 37.410157-33.246093zm0 0"/><path d="m256 0h-256v256h48v81.296875l80-64.023437v110.726562h256v-319.761719h-128zm-127.59375 232h-.40625v.328125l-48 38.375v-46.703125h-48v-192h192v192h-85.585938zm223.59375-135.761719v255.761719h-192v-96h96v-159.761719zm0 0"/><path d="m192 288h128v32h-128zm0 0"/></svg>