<svg xmlns="http://www.w3.org/2000/svg" viewBox="0 0 128.56 167.11"><defs><style>.cls-1{fill:#fff;}</style></defs><g id="Capa_2" data-name="Capa 2"><g id="Copia_de_icono1_copia_Imagen" data-name="Copia de icono1 copia Imagen"><path class="cls-1" d="M37.44,121c0-20.55-.06-39.67,0-58.79,0-8.28,4.88-13.69,12.33-14.18,8-.52,13.42,4.48,13.67,13,.23,8.14.05,16.3.05,25.13,8.21-4,15.4-3.9,21,4.44,7.81-5.41,15.23-5.59,21.27,1.36,4.23-.77,7.93-2,11.63-2,6.46,0,11.13,5.12,11.14,11.58q.06,25.22,0,50.44c0,7.69-6.83,14.9-14.51,15-21.31.15-42.62.1-63.93,0a7.67,7.67,0,0,1-4.71-2.12Q31.45,151.63,17.77,138.1c-3.83-3.82-6.71-8.29-6.26-14.11.46-6,3-9.49,8.3-11.2s9.83-.27,13.65,3.61C34.58,117.54,35.55,118.83,37.44,121Zm24.7-13.59L60.35,107V101.6c0-13,0-26,0-39,0-6.54-4.17-11.52-9.34-11.53s-9.24,5-9.43,11.52c0,1.16,0,2.33,0,3.5q0,28.49,0,57c0,1.43-.15,2.85-.25,4.79-1.57-.5-2.88-.54-3.61-1.21-2.81-2.6-5.38-5.45-8.15-8.1-3-2.88-6.47-3.4-10-1.15s-5.3,5.71-3.33,9.81a33.61,33.61,0,0,0,5.63,8.69q11.91,12.47,24.4,24.37a11.07,11.07,0,0,0,6.86,2.81c19,.22,38,.14,57,.12,10.63,0,16.11-5.37,16.16-15.9q.09-21,0-42a16,16,0,0,0-.82-5.37c-1.68-4.55-6.45-6.6-12-5.67-4.94.83-6.65,3.65-6,8.47.2,1.5-.44,3.11-.7,4.67l-2.1,0c-.1-2.79-.37-5.58-.25-8.36.16-4-2-6.16-5.42-7.4-7.68-2.73-13.4,1.4-13.51,9.63a49.65,49.65,0,0,1-.81,6.14l-2.18-.25c0-3.25,0-6.51,0-9.76-.06-6.3-3.3-9.53-9.51-9.52s-9.28,3.14-9.31,9.6c0,2.17.15,4.35-.07,6.49A13.72,13.72,0,0,1,62.14,107.45Z"/><path class="cls-1" d="M53,13.85c0,3.64.14,7.28-.08,10.91-.06,1.06-1.14,2-1.76,3.08-.76-.9-2.16-1.78-2.18-2.7-.18-7.43-.18-14.88,0-22.31C49,1.87,50.28.94,51,0c.66,1,1.81,1.93,1.87,2.94C53.1,6.57,53,10.21,53,13.85Z"/><path class="cls-1" d="M87.63,49c-3.5,0-7,.15-10.5-.1-1-.07-2-1.26-2.95-1.93.93-.7,1.85-2,2.8-2q11-.26,22,0c1,0,2,1.23,3,1.88-1.1.73-2.16,2-3.32,2.07C95,49.21,91.29,49,87.63,49Z"/><path class="cls-1" d="M13.9,49c-3.66,0-7.33.15-11-.09C1.91,48.88,1,47.67,0,47c1-.7,1.88-2,2.84-2,7.31-.17,14.64-.17,22,0,1,0,1.94,1.25,2.91,1.92-.94.71-1.84,2-2.83,2C21.23,49.18,17.56,49,13.9,49Z"/><path class="cls-1" d="M86.09,15.89c-5.45,5.77-10.84,11.62-16.43,17.26-.86.87-2.65.81-4,1.19.34-1.38.25-3.17,1.1-4.08,4.64-5,9.45-9.79,14.37-14.48,1-1,2.82-1.22,4.26-1.8Z"/><path class="cls-1" d="M34.27,35.39C28.47,29.27,22.64,23.17,16.91,17c-.46-.5-.28-1.61-.4-2.43.83.1,1.94-.1,2.44.35C24.47,20,30,25,35.26,30.35c.89.89.61,2.94.87,4.45Z"/></g></g></svg>