<svg xmlns="http://www.w3.org/2000/svg" viewBox="0 0 166.21 166.77"><defs><style>.cls-1{fill:#fff;}</style></defs><g id="Capa_2" data-name="Capa 2"><g id="Copia_de_icono1_copia_Imagen" data-name="Copia de icono1 copia Imagen"><path class="cls-1" d="M82.83,166.68C40.5,168.49.22,133.85,0,83.83-.21,37.1,36.56-.23,82.94,0c49.95.25,84.32,39.94,83.24,86S127.14,168.73,82.83,166.68Zm.29-13c38.48,0,69.79-31.49,69.75-70.16,0-38.44-31.22-69.83-69.46-69.93a69.91,69.91,0,0,0-70,69.89C13.33,122.17,44.63,153.71,83.12,153.71Z"/><path class="cls-1" d="M89.27,99c0,5.15.06,10.31,0,15.46-.07,4-2,6.84-6.29,6.76-4-.07-5.91-2.87-6-6.63-.12-10.47-.1-20.94,0-31.41,0-3.84,2.26-5.69,6.07-5.7,4.07,0,6.2,1.94,6.21,6.06C89.28,88.71,89.27,93.86,89.27,99Z"/><path class="cls-1" d="M89.28,52.56c0,4.44-2.59,7.12-6.31,7s-6.1-2.75-6-6.92c0-4,2.73-7,6.35-6.57C87.12,46.53,89.94,48.36,89.28,52.56Z"/></g></g></svg>