<svg xmlns="http://www.w3.org/2000/svg" viewBox="0 0 158.74 143.98"><defs><style>.cls-1{fill:#babdc6;}</style></defs><title>peticion</title><g id="Capa_2" data-name="Capa 2"><g id="Capa_1-2" data-name="Capa 1"><path class="cls-1" d="M131.45,65.72A65.73,65.73,0,1,0,8.9,98.74L.7,129.31l29.94-8A65.72,65.72,0,0,0,131.45,65.72Zm-27-21.41L87.91,60.89V96.63h-55V41.57H87.91v1.09l7.46-7.46a6.45,6.45,0,1,1,9.12,9.11Z"/><path class="cls-1" d="M158.74,84.19a59.71,59.71,0,0,0-25.55-49,74,74,0,0,1-57.79,104,59.76,59.76,0,0,0,55.46-4.41L158.1,142l-7.45-27.82A59.58,59.58,0,0,0,158.74,84.19Z"/><path class="cls-1" d="M64.75,81.38a6.42,6.42,0,0,1-4.56-1.88L47.12,66.42a6.44,6.44,0,0,1,9.11-9.11l8.52,8.52L79,51.54V50.45H41.73v37.3H79v-18L69.31,79.5A6.42,6.42,0,0,1,64.75,81.38Z"/></g></g></svg>