<svg xmlns="http://www.w3.org/2000/svg" viewBox="0 0 158.74 143.98"><defs><style>.cls-1{fill:#babdc6;}</style></defs><title>queja</title><g id="Capa_2" data-name="Capa 2"><g id="Capa_1-2" data-name="Capa 1"><path class="cls-1" d="M131.45,65.72A65.73,65.73,0,1,0,8.9,98.74L.7,129.31l29.94-8A65.72,65.72,0,0,0,131.45,65.72ZM74,107.48H57.28V91.31H74Zm.39-61.26L69.86,84.66H61.53L56.89,46.22V25.33h17.5Z"/><path class="cls-1" d="M158.74,84.19a59.71,59.71,0,0,0-25.55-49,74,74,0,0,1-57.79,104,59.76,59.76,0,0,0,55.46-4.41L158.1,142l-7.45-27.82A59.58,59.58,0,0,0,158.74,84.19Z"/></g></g></svg>