<svg xmlns="http://www.w3.org/2000/svg" viewBox="0 0 195.86 170"><defs><style>.cls-1{fill:#fff;}</style></defs><g id="Capa_2" data-name="Capa 2"><g id="Copia_de_icono1_copia_Imagen" data-name="Copia de icono1 copia Imagen"><path class="cls-1" d="M59.34,70.28c-1.56,4.89-3,9.83-4.71,14.67a11.33,11.33,0,0,0,5,13.59c2.46,1.4,4.73,3.15,7.25,4.4,9.74,4.84,12,13.11,10.58,23-.24,1.62-2,3-3,4.52-1.36-1.42-2.72-2.83-4.06-4.26-.09-.09-.07-.33,0-.49,2.39-9.83-4.13-14.39-11.05-18.72a11.14,11.14,0,0,0-2.08-1.37C47,102.2,46,94.28,47.13,85.32c.1-.82-.11-1.94.35-2.43,5.48-5.81,2.82-13,3.1-19.52.25-5.89-4.13-9.14-11.18-9.2S28.69,57,28.86,63.23c.17,6.46-1.07,12.86,1.95,19.45,1.89,4.13.67,9.85.22,14.79-.14,1.57-2.09,3.26-3.6,4.35-5.13,3.69-10.38,7.21-15.69,10.64-2.8,1.81-4,4.07-3.68,7.45a18.77,18.77,0,0,1-.18,6.94c-.39,1.43-2.23,3.39-3.42,3.39s-3.17-1.89-3.56-3.3c-2.51-9.18.24-16.45,8.13-22.17,2.69-2,5.47-3.79,8.33-5.48,6.41-3.8,7.45-8.53,6.1-15.78a86.62,86.62,0,0,1-1.34-24.08c.86-8.72,9.25-13.36,19.69-12.62,8.35.6,15.45,7.16,16.12,15.07.23,2.64,0,5.32,0,8Z"/><path class="cls-1" d="M175.58,70q-1.5,10.49-3,21c-.46,3.3.35,5.59,3.92,6.89,2.75,1,5,3.23,7.73,4.51,10.42,5,12.79,13.66,11.12,24.06-.23,1.49-2.22,2.7-3.39,4a37.5,37.5,0,0,1-3.42-3.73,3.5,3.5,0,0,1-.08-2.45c1.54-7.1-1.79-11.55-7.69-14.91a112.28,112.28,0,0,1-12.11-7.9c-1.52-1.14-3.25-3.39-3.16-5,.33-6-.65-11.78,1.59-18,2-5.54.77-12.53-.11-18.73-.65-4.57-5.86-6.38-12.43-5.48-5.12.7-8.57,3.9-8.8,8.63-.22,4.48-.07,9,0,13.48a3.69,3.69,0,0,0,.52,2.36c5.25,5.11,2.8,11.6,3,17.52.06,1.66-1.63,3.84-3.13,5a108.32,108.32,0,0,1-10,6.5c-6.48,4-11.63,8.51-10,17.39.27,1.47-2.53,3.52-3.9,5.29-1.09-1.82-2.76-3.52-3.18-5.48-2.81-13.28,5.81-19.59,15.62-25.24,8.91-5.13,9.8-8.89,5.07-18a12.84,12.84,0,0,1-1.18-5.26c-.16-4.32-.11-8.65,0-13,.15-10.07,7.11-16.59,17.79-16.73C167.53,46.63,174.57,52.68,175,63c.1,2.33,0,4.66,0,7Z"/><path class="cls-1" d="M150.66,29.59c-12-11.64-25.09-18.24-40.18-20.86C85.11,4.33,63.1,11.2,44.25,28.67c-1.51,1.4-4,2.76-5.85,2.52-3.23-.41-3.42-3-.76-5.71C62.35,0,97.66-7,130.38,7.25A99.87,99.87,0,0,1,143.16,14c4.06,2.51,7.8,5.54,12.41,8.87,0-2.69-.37-5,.13-7.08.3-1.26,2.06-3.16,3-3,1.42.17,3.74,1.71,3.81,2.8a145,145,0,0,1,0,17.44c-.06,1-2.17,2.48-3.47,2.64a102.27,102.27,0,0,1-15.42,1c-1.71,0-4.47-1.93-4.82-3.42-.72-3,1.94-3.68,4.53-3.63C145.29,29.62,147.28,29.59,150.66,29.59Z"/><path class="cls-1" d="M38.54,146.89c0,3.16.45,5.58-.15,7.71-.44,1.58-2.24,2.78-3.44,4.15-1.21-1.33-3.37-2.6-3.47-4a118.66,118.66,0,0,1,0-17c.1-1.27,2.39-3.29,3.79-3.39a106.42,106.42,0,0,1,16,0c1.5.12,2.85,2.13,4.27,3.27C54,139,52.74,140.8,51,141.46s-3.94.14-5.93.14l-1.58,1.77c1.32.57,2.86.88,3.93,1.76,29.83,24.48,71.83,23.49,100.72-2.44,1.12-1,2-2.58,3.33-2.94,1.75-.49,3.76-.07,5.66,0-.33,1.67-.09,3.88-1.08,4.95-27.64,29.75-73.66,33.78-108,9.55C45.1,152.11,42.29,149.78,38.54,146.89Z"/></g></g></svg>