<svg xmlns="http://www.w3.org/2000/svg" viewBox="0 0 53.64 75.44"><defs><style>.cls-1{fill:#fff;}</style></defs><g id="Capa_2" data-name="Capa 2"><g id="Capa_1-2" data-name="Capa 1"><path id="human-location" class="cls-1" d="M36.64,54.93l1.18-8.26,5-3.07a2.47,2.47,0,0,0,1.13-2.44L42,27.82c-.77-5.1-5.29-9.27-10.11-9.36a10,10,0,1,0-10.9,0c-4.82.1-9.34,4.26-10.11,9.39L9,41.16a2.48,2.48,0,0,0,1.14,2.44l5,3.07L16.27,55C7.32,56.39,0,59.58,0,64.86c0,7.27,13.9,10.58,26.82,10.58s26.82-3.31,26.82-10.58C53.64,59.44,45.92,56.22,36.64,54.93ZM26.44,4.83a5.17,5.17,0,1,1-5.11,5.22V10a5.13,5.13,0,0,1,5.11-5.15ZM14.07,40.26l1.67-11.7c.43-2.81,2.91-5.18,5.42-5.18H31.73c2.51,0,5,2.37,5.41,5.16l1.67,11.73L34.25,43.1a2.44,2.44,0,0,0-1.14,1.74l-2.62,18.4v0a1,1,0,0,1-.68.82H23.08a1,1,0,0,1-.68-.82v0l-2.62-18.4a2.46,2.46,0,0,0-1.13-1.74Zm29.19,28a53.83,53.83,0,0,1-16.44,2.26,53.85,53.85,0,0,1-16.45-2.26c-4.12-1.37-5.45-2.88-5.45-3.4s1.33-2,5.45-3.41A40.26,40.26,0,0,1,17,59.92l.58,4A5.81,5.81,0,0,0,23.08,69h6.73a5.81,5.81,0,0,0,5.55-5.09L36,59.81a41.55,41.55,0,0,1,7.31,1.64c4.12,1.37,5.46,2.89,5.46,3.41s-1.34,2-5.46,3.4Z"/></g></g></svg>