<svg xmlns="http://www.w3.org/2000/svg" viewBox="0 0 27 22"><defs><style>.cls-1{fill:#b4b4b4;}</style></defs><g id="Capa_2" data-name="Capa 2"><g id="Capa_1-2" data-name="Capa 1"><path id="np_home_2087695_000000" data-name="np home 2087695 000000" class="cls-1" d="M26.67,10.25a.87.87,0,0,1,.22,1.11.66.66,0,0,1-.88.29.71.71,0,0,1-.14-.1l-2-1.59V21.18a.79.79,0,0,1-.72.82H3.84a.8.8,0,0,1-.72-.82V10l-2,1.59a.6.6,0,0,1-.86,0,.46.46,0,0,1-.11-.16.9.9,0,0,1,.17-1.11L13.1.14a.63.63,0,0,1,.8,0L26.67,10.25ZM22.45,20.36V8.86l-9-7.09L4.56,8.86v11.5Z"/></g></g></svg>