<svg xmlns="http://www.w3.org/2000/svg" xmlns:xlink="http://www.w3.org/1999/xlink" viewBox="0 0 259.72 84.49"><defs><style>.cls-1{fill:#007e82;}.cls-2,.cls-3,.cls-4,.cls-5,.cls-6,.cls-7,.cls-8,.cls-9{opacity:0.8;}.cls-2{fill:url(#Degradado_sin_nombre_24);}.cls-3{fill:url(#Degradado_sin_nombre_24-2);}.cls-4{fill:url(#Degradado_sin_nombre_24-3);}.cls-5{fill:url(#Degradado_sin_nombre_24-4);}.cls-6{fill:url(#Degradado_sin_nombre_24-5);}.cls-7{fill:url(#Degradado_sin_nombre_24-6);}.cls-8{fill:url(#Degradado_sin_nombre_24-7);}.cls-9{fill:url(#Degradado_sin_nombre_24-8);}</style><linearGradient id="Degradado_sin_nombre_24" x1="4080.63" y1="45.84" x2="4080.63" y2="-2.72" gradientTransform="matrix(-0.68, 0, 0, 1, 2809.33, 0)" gradientUnits="userSpaceOnUse"><stop offset="0" stop-color="#fff" stop-opacity="0"/><stop offset="0.13" stop-color="#fff" stop-opacity="0.1"/><stop offset="0.4" stop-color="#fff" stop-opacity="0.36"/><stop offset="0.78" stop-color="#fff" stop-opacity="0.76"/><stop offset="1" stop-color="#fff"/></linearGradient><linearGradient id="Degradado_sin_nombre_24-2" x1="3991.38" y1="45.84" x2="3991.38" y2="-2.72" xlink:href="#Degradado_sin_nombre_24"/><linearGradient id="Degradado_sin_nombre_24-3" x1="4039.14" y1="45.84" x2="4039.14" y2="-2.72" xlink:href="#Degradado_sin_nombre_24"/><linearGradient id="Degradado_sin_nombre_24-4" x1="3972.66" y1="45.84" x2="3972.66" y2="-2.72" xlink:href="#Degradado_sin_nombre_24"/><linearGradient id="Degradado_sin_nombre_24-5" x1="3930.11" y1="45.84" x2="3930.11" y2="-2.72" xlink:href="#Degradado_sin_nombre_24"/><linearGradient id="Degradado_sin_nombre_24-6" x1="3872.46" y1="45.84" x2="3872.46" y2="-2.72" xlink:href="#Degradado_sin_nombre_24"/><linearGradient id="Degradado_sin_nombre_24-7" x1="3826.39" y1="45.84" x2="3826.39" y2="-2.72" xlink:href="#Degradado_sin_nombre_24"/><linearGradient id="Degradado_sin_nombre_24-8" x1="3760" y1="45.84" x2="3760" y2="-2.72" xlink:href="#Degradado_sin_nombre_24"/></defs><g id="Capa_2" data-name="Capa 2"><g id="Capa_1-2" data-name="Capa 1"><path d="M106.69,83.77l-6.08-24-9.4,24.72-9.4-24.76-6.12,24H74.05l7.44-29.4,9.72,25.48,9.72-25.52,7.44,29.44Z"/><path d="M112.17,75.17A7.61,7.61,0,0,0,114,80.49c3,3.05,9.09,2.75,11.29-1.48l1.48.68c-4.06,7.66-16.43,4.74-16.16-4.16-.21-11.12,17-11.5,17.08-.36Zm11.28-5.24c-3.88-2.76-9.81-1.31-11,3.68h13.4A5.6,5.6,0,0,0,123.45,69.93ZM118.17,65l-1-.92,5.35-5.36.89,1Z"/><path d="M140.76,83.77l-4.68-6.92-4.68,6.92h-2l5.64-8.32-5.52-8.2h1.92l4.6,6.84,4.56-6.84h1.92l-5.48,8.16,5.6,8.36Z"/><path d="M147,64.29a1.56,1.56,0,0,1-.92-.36,1.46,1.46,0,0,1-.4-1q0-1.08,1.32-1.32,1,0,1.32,1.32A1.17,1.17,0,0,1,147,64.29Zm-.84,19.48V67.25h1.64V83.77Z"/><path d="M161,84.09c-7.72.25-11.37-9.44-6.12-14.68,2.57-2.87,8.28-3.23,11.16-1v2l-1-.68-1.12-.6c-7.61-2.82-13,5.67-7.88,11.44,2.53,2.63,7.36,2.58,10,0v2A9,9,0,0,1,161,84.09Z"/><path d="M181.64,81.57c-5.17,5.34-14.83,1.52-14.6-6A8.5,8.5,0,0,1,175.56,67C183.08,66.75,186.94,76.42,181.64,81.57Zm-1.16-11c-6.53-6.36-16.15,3.23-9.8,9.8C177.4,86.75,186.71,77.27,180.48,70.61Z"/><polygon class="cls-1" points="97.97 0 90.87 7 97.97 7 97.97 0"/><rect x="259.48" y="9.47" width="0.24" height="7.1"/><path d="M19.88,16.57H39.75V9.47H19.88A19.9,19.9,0,0,0,1.52,21.74,19.65,19.65,0,0,0,0,29.35,19.9,19.9,0,0,0,19.88,49.23H39.75v-7.1H19.88A12.8,12.8,0,0,1,7.1,29.35,12.83,12.83,0,0,1,19.88,16.57Z"/><path class="cls-2" d="M19.88,16.57H39.75V9.47H19.88A19.9,19.9,0,0,0,1.52,21.74l7.57.8A12.77,12.77,0,0,1,19.88,16.57Z"/><path d="M78.09,9.47V29.35c0,.16,0,.32,0,.48a12.77,12.77,0,0,1-25.53-.48V9.47h-7.1V29.35a19.86,19.86,0,0,0,39.69,1.22c0-.4.06-.81.06-1.22V9.47Z"/><path class="cls-3" d="M85.19,9.47h-7.1V29.35c0,.16,0,.32,0,.48l7.06.74c0-.4.06-.81.06-1.22Z"/><polygon class="cls-4" points="52.54 9.47 45.44 9.47 45.44 26.38 52.54 27.13 52.54 9.47"/><polygon points="90.87 9.47 90.87 31.18 90.87 49.23 97.97 49.23 97.97 31.93 97.97 9.47 90.87 9.47"/><polygon class="cls-5" points="90.87 9.47 90.87 31.18 97.97 31.93 97.97 9.47 90.87 9.47"/><path d="M123.47,9.53l.06-.06H103.65V49.23h19.88a19.54,19.54,0,0,0,14-5.85c.4-.4.79-.8,1.14-1.2a19.9,19.9,0,0,0,4.71-12.83A19.85,19.85,0,0,0,123.47,9.53Zm0,32.65H110.69V16.63h12.78a12.78,12.78,0,0,1,0,25.55Z"/><path class="cls-6" d="M123.47,9.53l.06-.06H103.65V32.53l7,.74V16.63h12.78a12.75,12.75,0,0,1,11.05,19.16l7.46.79a19.81,19.81,0,0,0-18.51-27Z"/><polygon points="178.73 42.13 177.84 40.37 162.09 9.47 147.96 37.21 145.45 42.13 141.82 49.23 149.77 49.23 153.4 42.13 155.5 38.01 162.09 25.09 169.43 39.48 170.78 42.13 174.42 49.23 182.37 49.23 178.73 42.13"/><polygon class="cls-7" points="147.96 37.21 155.5 38.01 162.09 25.09 169.43 39.48 177.84 40.37 162.09 9.47 147.96 37.21"/><polygon points="174.53 9.53 174.53 16.63 190.83 16.63 190.83 41.74 190.83 49.28 197.93 49.28 197.93 42.49 197.93 16.63 214.23 16.63 214.23 9.53 174.53 9.53"/><polygon class="cls-8" points="214.23 16.63 214.23 9.53 174.53 9.53 174.53 16.63 190.83 16.63 190.83 41.74 197.93 42.49 197.93 16.63 214.23 16.63"/><path d="M259.48,42.13H230.7a3.66,3.66,0,0,1-3.63-3.64V31h25.55V23.9H227.07V20.21a3.66,3.66,0,0,1,3.63-3.64h28.78V9.47H230.7A10.72,10.72,0,0,0,220,20.21V38.49A10.76,10.76,0,0,0,230.7,49.23h29v-7.1Z"/><path class="cls-9" d="M227.07,38.49V31h25.55V23.9H227.07V20.21a3.66,3.66,0,0,1,3.63-3.64h28.78V9.47H230.7A10.72,10.72,0,0,0,220,20.21V38.49a10.71,10.71,0,0,0,2.26,6.58L259.48,49V42.13H230.7A3.66,3.66,0,0,1,227.07,38.49Z"/></g></g></svg>