<svg xmlns="http://www.w3.org/2000/svg" viewBox="0 0 18.2 22"><defs><style>.cls-1{fill:#b2b2b2;}</style></defs><g id="Capa_2" data-name="Capa 2"><g id="Capa_1-2" data-name="Capa 1"><path id="Trazado_125" data-name="Trazado 125" class="cls-1" d="M2.87,22H15.34a2.86,2.86,0,0,0,2.86-2.87,2.9,2.9,0,0,0-1.28-2.4,28.8,28.8,0,0,0-3.21-1.9,6.56,6.56,0,0,1-2.8,2,5.31,5.31,0,0,1-1.81.32,5.22,5.22,0,0,1-1.79-.3,6.34,6.34,0,0,1-2.82-2c-.75.38-1.9,1.05-3.21,1.9A2.86,2.86,0,0,0,2.87,22Z"/><path id="Trazado_126" data-name="Trazado 126" class="cls-1" d="M3.26,10a4.07,4.07,0,0,0,.92,1.83,5.86,5.86,0,0,0,3.53,4A4.17,4.17,0,0,0,9.15,16a4.25,4.25,0,0,0,1.42-.26,5.84,5.84,0,0,0,3.53-4A4.07,4.07,0,0,0,15,10a2.92,2.92,0,0,0-.14-2.5l-.07-.09a6.77,6.77,0,0,0,.09-.74c.64-4.3-1.74-4.58-2-4.58,0,0,0,0,0,0a3.11,3.11,0,0,0-3.39-2A20.31,20.31,0,0,1,4.84,0a1.46,1.46,0,0,0,.53,1.12c-2.64,1.6-2.15,5-1.9,6.26a.31.31,0,0,0-.07.09A2.92,2.92,0,0,0,3.26,10ZM4.64,8h.07v0a2.08,2.08,0,0,1,.73-2.32,6.67,6.67,0,0,0,4.17-.55C13.23,3.5,13.55,8,13.55,8h.07c.37,0,.76.3.34,1.72-.32,1.12-.62,1.44-.82,1.44a4.74,4.74,0,0,1-2.94,3.62,3.18,3.18,0,0,1-2.15,0,4.8,4.8,0,0,1-2.93-3.62c-.23,0-.53-.34-.83-1.44C3.88,8.22,4.27,8,4.64,8Z"/></g></g></svg>