<svg xmlns="http://www.w3.org/2000/svg" xmlns:xlink="http://www.w3.org/1999/xlink" viewBox="0 0 16.01 16"><defs><style>.cls-1{fill:none;}.cls-2{clip-path:url(#clip-path);}.cls-3{fill:#007e82;fill-rule:evenodd;}</style><clipPath id="clip-path" transform="translate(0.01)"><rect class="cls-1" width="16" height="16"/></clipPath></defs><g id="Capa_2" data-name="Capa 2"><g id="Capa_1-2" data-name="Capa 1"><g class="cls-2"><g id="Alert"><rect id="Rectángulo_479" data-name="Rectángulo 479" class="cls-1" x="0.01" width="16" height="16"/><path id="Trazado_1" data-name="Trazado 1" class="cls-3" d="M14.94,14h-5a2,2,0,1,1-4,0h-5a1,1,0,0,1-.9-.7,1.06,1.06,0,0,1,.3-1.1A4.05,4.05,0,0,0,1.94,9V6a6,6,0,0,1,12,0V9a4,4,0,0,0,1.6,3.2,1,1,0,0,1-.6,1.8Z" transform="translate(0.01)"/></g></g></g></g></svg>