<svg xmlns="http://www.w3.org/2000/svg" viewBox="0 0 22 22"><defs><style>.cls-1{fill:#b2b2b2;}</style></defs><g id="Capa_2" data-name="Capa 2"><g id="Capa_1-2" data-name="Capa 1"><g id="np_news_1366052_000000" data-name="np news 1366052 000000"><path id="Trazado_118" data-name="Trazado 118" class="cls-1" d="M22,3.15A3.15,3.15,0,0,0,18.85,0H3.15A3.15,3.15,0,0,0,0,3.15v15.7A3.15,3.15,0,0,0,3.15,22h15.7A3.15,3.15,0,0,0,22,18.85h0Zm-1.58,15.7a1.57,1.57,0,0,1-1.56,1.58H3.15a1.57,1.57,0,0,1-1.58-1.57V3.16A1.58,1.58,0,0,1,3.15,1.58h15.7a1.57,1.57,0,0,1,1.57,1.57Z"/><path id="Trazado_119" data-name="Trazado 119" class="cls-1" d="M3.77,11.39H11a.78.78,0,0,0,.78-.78h0V4.71A.78.78,0,0,0,11,3.92H3.77A.78.78,0,0,0,3,4.7H3v5.9a.78.78,0,0,0,.78.79Zm.79-5.9h5.65V9.82H4.56Z"/><path id="Trazado_120" data-name="Trazado 120" class="cls-1" d="M18.22,3.92H14a.79.79,0,1,0,0,1.57h4.2A.79.79,0,0,0,19,4.7a.78.78,0,0,0-.79-.78Z"/><path id="Trazado_121" data-name="Trazado 121" class="cls-1" d="M18.22,7.07H14a.79.79,0,1,0,0,1.57h4.2a.79.79,0,1,0,0-1.57Z"/><path id="Trazado_122" data-name="Trazado 122" class="cls-1" d="M18.22,10.21H14a.79.79,0,0,0,0,1.58h4.2a.79.79,0,1,0,0-1.58Z"/><path id="Trazado_123" data-name="Trazado 123" class="cls-1" d="M18.22,13.36H3.79a.79.79,0,0,0,0,1.58H18.22a.79.79,0,0,0,0-1.58Z"/><path id="Trazado_124" data-name="Trazado 124" class="cls-1" d="M18.22,16.51H3.79a.79.79,0,1,0,0,1.57H18.22a.79.79,0,0,0,0-1.57Z"/></g></g></g></svg>