<svg xmlns="http://www.w3.org/2000/svg" viewBox="0 0 43 43"><defs><style>.cls-1{fill:#fa6e6e;}.cls-2{fill:#fff;}</style></defs><g id="Capa_2" data-name="Capa 2"><g id="Capa_1-2" data-name="Capa 1"><g id="Grupo_1024" data-name="Grupo 1024"><path id="Trazado_657-3" data-name="Trazado 657-3" class="cls-1" d="M4.34,0H38.66A4.34,4.34,0,0,1,43,4.34V38.66A4.34,4.34,0,0,1,38.66,43H4.34A4.34,4.34,0,0,1,0,38.66V4.34A4.34,4.34,0,0,1,4.34,0Z"/><path id="human-location-3" class="cls-2" d="M25.91,29.11l.51-3.59,2.15-1.34a1,1,0,0,0,.49-1.05l-.82-5.8a4.82,4.82,0,0,0-4.39-4.07,4.36,4.36,0,1,0-6-1.29,4.18,4.18,0,0,0,1.29,1.29,4.8,4.8,0,0,0-4.39,4.08l-.83,5.78a1.06,1.06,0,0,0,.49,1.06l2.16,1.34.51,3.63c-3.88.59-7.06,2-7.06,4.27,0,3.16,6,4.6,11.65,4.6s11.65-1.44,11.65-4.6C33.29,31.07,29.94,29.67,25.91,29.11ZM21.48,7.35a2.24,2.24,0,1,1-2.22,2.26v0A2.23,2.23,0,0,1,21.48,7.35ZM16.11,22.74l.72-5.09a2.63,2.63,0,0,1,2.35-2.25h4.59a2.61,2.61,0,0,1,2.35,2.25l.73,5.09-2,1.23a1,1,0,0,0-.49.76l-1.14,8h0a.43.43,0,0,1-.3.36H20a.42.42,0,0,1-.29-.36h0l-1.14-8A1.08,1.08,0,0,0,18.1,24ZM28.78,34.9a23.59,23.59,0,0,1-7.14,1,23.7,23.7,0,0,1-7.15-1c-1.79-.6-2.36-1.26-2.36-1.48s.58-.89,2.36-1.48a17.83,17.83,0,0,1,2.87-.67L17.6,33A2.55,2.55,0,0,0,20,35.23h2.92A2.53,2.53,0,0,0,25.35,33l.26-1.79a18,18,0,0,1,3.17.71c1.79.6,2.37,1.25,2.37,1.48S30.57,34.3,28.78,34.9Z"/></g></g></g></svg>