<svg xmlns="http://www.w3.org/2000/svg" viewBox="0 0 144.04 143.86"><defs><style>.cls-1{opacity:0.05;}.cls-2{fill:#468c48;}</style></defs><g id="Capa_2" data-name="Capa 2"><g id="Capa_1-2" data-name="Capa 1"><g id="virus" class="cls-1"><path id="Trazado_649" data-name="Trazado 649" class="cls-2" d="M114,137.4a2.2,2.2,0,0,1-.86-3.64c2.19-1.95,2.89-3.45,2.9-3.91-.6-.71-3.88-2.08-7.68-1.51a2.14,2.14,0,0,1-2.16-1l-5-8.57a2.14,2.14,0,0,1,.65-2.83,52.6,52.6,0,0,0,20-25.61c.94-2.57,7.52-1,7.79,1.48.43,3.8,2.59,6.59,3.46,7,.82-.22,3.31-3,4.84-8.64s.74-9.32.13-9.91c-.93-.09-4.21,1.25-6.5,4.34-1.46,2-7.92.08-7.4-2.63a52.6,52.6,0,0,0-4-32.26,2.13,2.13,0,0,1,.87-2.75l8.65-5a2.15,2.15,0,0,1,2.39.18c3,2.39,6.5,2.85,7.41,2.53.42-.74.23-4.44-2.71-9.53S130.82,28,130,28c-.72.6-2.08,3.86-1.51,7.66a2.14,2.14,0,0,1-1,2.16l-8.58,4.94a2.11,2.11,0,0,1-2.82-.65,52.89,52.89,0,0,0-25.67-20c-2.57-.94-1-7.51,1.48-7.78,3.8-.44,6.6-2.57,7-3.44-.23-.82-3-3.31-8.67-4.84s-9.33-.74-9.93-.14c-.08.93,1.27,4.2,4.36,6.48,2,1.46.09,7.92-2.63,7.4A53.06,53.06,0,0,0,67.75,19c-2.75.22-3.08-4-.34-4.25a57.41,57.41,0,0,1,13.42.52l.1-.39c-3.38-3-5.52-7.41-4.79-10.13C77.32.33,84.81.19,91.29,1.92s12.89,5.61,11.71,10c-.74,2.73-4.78,5.46-9.22,6.38l-.13.48a57,57,0,0,1,24.76,19.31l5.7-3.28c-.26-4.52,1.34-9.13,3.79-10.54,3.95-2.28,9.35,2.91,12.7,8.7,2.77,4.79,4,9.61,3.2,12.57a4.34,4.34,0,0,1-2,2.78c-2.45,1.41-7.25.48-11-2L125,49.67a56.71,56.71,0,0,1,3.85,31.12l.39.1c3-3.37,7.41-5.5,10.14-4.77,4.42,1.18,4.56,8.67,2.83,15.12s-5.6,12.87-10,11.68c-2.73-.73-5.47-4.77-6.4-9.2l-.49-.14A56.69,56.69,0,0,1,106,118.28l3.29,5.69c4.53-.25,9.15,1.35,10.57,3.79s0,5.79-3.79,9.18a2.12,2.12,0,0,1-2,.47Z"/><path id="Trazado_650" data-name="Trazado 650" class="cls-2" d="M52.76,142c-6.47-1.73-12.89-5.61-11.71-10,.73-2.73,4.77-5.46,9.22-6.38l.13-.49a57,57,0,0,1-24.77-19.31l-5.7,3.28c.26,4.53-1.34,9.14-3.79,10.55a4.29,4.29,0,0,1-3.38.36c-3.29-.88-6.86-4.81-9.32-9.07-2.77-4.79-4-9.6-3.2-12.57a4.34,4.34,0,0,1,2-2.77c2.45-1.41,7.24-.48,11,2l5.79-3.34A56.76,56.76,0,0,1,15.23,63.1l-.39-.1c-3,3.37-7.41,5.5-10.14,4.77C.29,66.58.14,59.1,1.87,52.64S7.48,39.78,11.89,41c2.73.73,5.46,4.78,6.39,9.21l.5.13A56.78,56.78,0,0,1,38.09,25.6L34.8,19.91c-4.53.25-9.15-1.34-10.56-3.79a4.32,4.32,0,0,1-.35-3.41c.79-3,4.26-6.52,9.06-9.28C38.74.1,46-1.7,48.3,2.25c1.42,2.45.49,7.24-2,11l3.35,5.79a58.41,58.41,0,0,1,6.27-2.23c2.65-.77,3.84,3.32,1.19,4.09a54.69,54.69,0,0,0-7.45,2.79,2.12,2.12,0,0,1-2.74-.86l-5-8.64a2.13,2.13,0,0,1,.18-2.4c2.38-3,2.84-6.48,2.52-7.39-.74-.42-4.44-.25-9.56,2.7S28,13.18,28,14c.6.71,3.87,2.08,7.68,1.51a2.14,2.14,0,0,1,2.16,1l5,8.57A2.13,2.13,0,0,1,42.11,28a52.54,52.54,0,0,0-20,25.61c-.95,2.57-7.52,1-7.8-1.48-.43-3.8-2.58-6.59-3.45-7C10,45.31,7.52,48.05,6,53.74s-.74,9.32-.13,9.91c.93.09,4.21-1.25,6.5-4.35,1.46-2,7.92-.07,7.4,2.64a52.61,52.61,0,0,0,4,32.26,2.12,2.12,0,0,1-.87,2.74l-8.65,5a2.12,2.12,0,0,1-2.39-.18c-3-2.38-6.5-2.84-7.41-2.52-.42.74-.23,4.43,2.71,9.52s6.09,7.12,6.94,7.12c.71-.6,2.07-3.86,1.5-7.66A2.12,2.12,0,0,1,16.62,106l8.58-5a2.13,2.13,0,0,1,2.82.65,52.84,52.84,0,0,0,25.67,20c2.57.94,1,7.51-1.48,7.79-3.8.43-6.59,2.57-7,3.44.23.82,3,3.31,8.67,4.83s9.33.75,9.93.15c.08-.93-1.27-4.2-4.36-6.48-2-1.47-.08-7.93,2.64-7.41a52.85,52.85,0,0,0,32.31-3.94,2.12,2.12,0,0,1,2.74.86l5,8.64a2.13,2.13,0,0,1-.18,2.4c-2.38,3-2.84,6.47-2.52,7.38.31.16,1.7.44,4.58-.46,2.63-.83,3.9,3.24,1.27,4.07-4.68,1.47-8.16,1-9.53-1.42s-.49-7.24,2-11l-3.35-5.79a57,57,0,0,1-31.17,3.81l-.11.38c3.38,3,5.53,7.41,4.79,10.14-1.18,4.41-8.67,4.55-15.14,2.81Z"/><path id="Trazado_651" data-name="Trazado 651" class="cls-2" d="M52.86,59.6A14.49,14.49,0,1,1,70.64,49.36,14.49,14.49,0,0,1,52.86,59.6Zm6.4-23.88a10.23,10.23,0,1,0,7.27,12.54,10.23,10.23,0,0,0-7.27-12.54Z"/><path id="Trazado_652" data-name="Trazado 652" class="cls-2" d="M101.13,99a8.31,8.31,0,1,1,10.19-5.87A8.31,8.31,0,0,1,101.13,99Zm3.2-11.94a4,4,0,1,0,2.88,5,4,4,0,0,0-2.88-5Z"/><path id="Trazado_653" data-name="Trazado 653" class="cls-2" d="M75.24,116.39a11.29,11.29,0,1,1,13.85-8A11.31,11.31,0,0,1,75.24,116.39ZM80,98.69a7,7,0,1,0,5,8.62,7,7,0,0,0-5-8.62Z"/></g></g></g></svg>